<svg width="44" height="44" viewBox="0 0 44 44" fill="none" xmlns="http://www.w3.org/2000/svg">
<g clip-path="url(#clip0_9_237)">
<rect x="-6.10352e-05" y="6.0248" width="44.1822" height="38.1573" rx="2.00828" fill="#302A2B"/>
<path d="M41.0551 32.5317C38.9576 32.5565 37.267 33.9338 37.267 35.6294C37.2673 37.3247 38.9579 38.7003 41.0551 38.7251V38.727H4.3197V32.5307H41.0551V32.5317Z" fill="white"/>
<path d="M40.8527 25.2341C40.9106 26.0439 40.875 26.8756 40.8759 27.6882L40.8831 32.4842C39.7731 32.4426 38.6513 32.4724 37.5403 32.4779C36.925 32.4809 36.2631 32.4345 35.6559 32.5002L15.8742 32.4799L10.0362 32.4817L8.19059 32.4854C7.8374 32.4877 7.4663 32.472 7.11643 32.5182C7.07852 32.5231 7.04072 32.5287 7.00302 32.5352C6.96533 32.5416 6.92778 32.5487 6.89037 32.5567C6.85301 32.5646 6.81581 32.5733 6.77878 32.5828C6.74171 32.5922 6.70486 32.6024 6.66825 32.6134C6.63163 32.6243 6.59525 32.636 6.55909 32.6485C6.52298 32.6609 6.48711 32.6741 6.4515 32.688C6.41588 32.7019 6.38057 32.7165 6.34558 32.7319C6.31059 32.7472 6.27591 32.7633 6.24154 32.7801C6.20717 32.7968 6.17318 32.8143 6.13956 32.8325C6.10594 32.8506 6.0727 32.8695 6.03983 32.889C6.00696 32.9085 5.97448 32.9287 5.9424 32.9495C5.91037 32.9703 5.87877 32.9918 5.8476 33.0139C5.81644 33.0361 5.78573 33.0588 5.75548 33.0822C5.72528 33.1056 5.69555 33.1296 5.6663 33.1542C5.63701 33.1788 5.60825 33.204 5.58004 33.2298C5.55183 33.2555 5.52414 33.2818 5.49697 33.3088C4.92123 33.8796 4.5613 34.6637 4.56261 35.4786C4.56386 36.2907 4.86387 37.1175 5.4496 37.6906C5.88648 38.118 6.48726 38.4361 7.09739 38.5114C7.49739 38.5608 7.91585 38.5365 8.31878 38.5353L10.2334 38.5335L16.9498 38.536L40.8397 38.5271C40.8284 39.018 40.8215 39.5089 40.8188 39.9999L16.9242 39.9957L10.1477 39.9929L8.06645 39.9943C7.56835 39.9944 7.06475 40.0145 6.5702 39.9461C5.73526 39.8307 4.95412 39.4866 4.35684 38.8819C3.49981 38.0142 3.20155 37.0873 3.21078 35.8856L3.2106 31.5335C3.20985 30.6857 3.18707 29.8352 3.21053 28.9879C3.44564 28.0533 3.59624 27.5025 4.30373 26.7963C4.33881 26.7617 4.37453 26.7278 4.41089 26.6946C4.44726 26.6615 4.48427 26.629 4.52192 26.5973C4.55958 26.5656 4.59781 26.5345 4.63663 26.5043C4.6755 26.474 4.71492 26.4445 4.7549 26.4158C4.79489 26.3871 4.83541 26.3591 4.87648 26.332C4.91755 26.3048 4.95911 26.2785 5.00118 26.2529C5.04328 26.2274 5.08587 26.2027 5.12893 26.1787C5.17196 26.1549 5.21544 26.1318 5.25937 26.1096C5.30335 26.0874 5.34773 26.066 5.3925 26.0455C5.43727 26.025 5.48241 26.0054 5.52793 25.9867C5.57349 25.968 5.61938 25.9501 5.66561 25.9332C5.71184 25.9162 5.75837 25.9002 5.80522 25.885C5.85207 25.8698 5.8992 25.8556 5.94659 25.8423C5.99398 25.829 6.04162 25.8166 6.08951 25.8051C6.1374 25.7936 6.1855 25.7831 6.2338 25.7735C6.28207 25.7639 6.33052 25.7552 6.37916 25.7474C7.12441 25.6253 8.15564 25.6771 8.9281 25.6743L13.5398 25.6712L28.09 25.6421C29.8383 25.5951 31.5919 25.6423 33.341 25.6472L40.8449 25.6485C40.8458 25.5103 40.8484 25.3722 40.8527 25.2341Z" fill="#ADBA45"/>
<path d="M3.22074 6.72167C3.20521 5.9005 3.19838 5.07927 3.20025 4.25798C3.20075 2.98143 3.44112 2.02177 4.38162 1.09514C4.41677 1.06031 4.45258 1.0262 4.48906 0.992814C4.52558 0.95943 4.56277 0.926792 4.60063 0.894901C4.63844 0.863009 4.6769 0.831885 4.716 0.801528C4.75511 0.771171 4.79479 0.741603 4.83506 0.712822C4.87533 0.684082 4.91619 0.65615 4.95762 0.629028C4.99902 0.601906 5.04095 0.575615 5.08343 0.550152C5.12595 0.524689 5.16893 0.500096 5.21236 0.476375C5.25584 0.452653 5.29977 0.429822 5.34417 0.407884C5.38856 0.385904 5.43339 0.364838 5.47866 0.344683C5.52388 0.324528 5.56952 0.305285 5.61558 0.286954C5.6616 0.268624 5.70797 0.251207 5.7547 0.234701C5.80142 0.218237 5.84846 0.202707 5.89581 0.188109C5.94316 0.173511 5.9908 0.159887 6.03873 0.147238C6.08662 0.134548 6.13476 0.122832 6.18315 0.112091C6.23154 0.10135 6.28012 0.0915641 6.32889 0.0827308C6.37765 0.0739389 6.42658 0.0661207 6.47568 0.059278C6.99528 -0.013877 7.53487 0.00105259 8.05846 0.00136362L10.006 0.00322974L16.5951 0.00266972L40.8734 0.0330896C40.8913 1.10099 40.8824 2.1707 40.8859 3.23878C37.9302 3.30609 34.9649 3.2646 32.0082 3.26485L15.838 3.26591L9.59032 3.2641L7.81303 3.26068C7.39425 3.26012 6.96411 3.24158 6.54877 3.30192C5.69916 3.4254 4.87429 3.828 4.28017 4.44889C3.67406 5.08228 3.3468 5.86328 3.22074 6.72167Z" fill="#ADBA45"/>
<path d="M3.21734 6.47607C3.34344 5.47144 3.67082 4.55739 4.27715 3.8161C4.87148 3.08944 5.69665 2.61825 6.54656 2.47374C6.96205 2.40312 7.39234 2.42481 7.81127 2.42547L9.5892 2.42947L15.8392 2.43158L32.0152 2.43035C34.9729 2.43006 37.9392 2.47862 40.896 2.39984L40.8999 28.0199C40.8957 28.1811 40.8931 28.3423 40.8921 28.5034L33.3789 28.5019C31.6277 28.4962 29.8719 28.4412 28.1214 28.4959L13.5532 28.5299L8.93576 28.5336C8.16233 28.5368 7.12983 28.4764 6.38365 28.6189C6.33495 28.6279 6.28644 28.6381 6.23811 28.6493C6.18975 28.6605 6.14159 28.6728 6.09364 28.6862C6.04569 28.6996 5.99799 28.714 5.95054 28.7296C5.90309 28.7451 5.85591 28.7617 5.809 28.7794C5.76209 28.7971 5.7155 28.8158 5.66921 28.8356C5.62293 28.8554 5.57698 28.8762 5.53136 28.898C5.48579 28.9199 5.44059 28.9428 5.39576 28.9667C5.35094 28.9906 5.30651 29.0155 5.26247 29.0415C5.21848 29.0674 5.17495 29.0943 5.13187 29.1221C5.08876 29.15 5.04612 29.1789 5.00396 29.2087C4.96184 29.2385 4.92022 29.2692 4.8791 29.3009C4.83799 29.3326 4.79741 29.3652 4.75738 29.3987C4.71734 29.4323 4.67787 29.4667 4.63896 29.5019C4.60009 29.5373 4.56181 29.5735 4.52411 29.6105C4.4864 29.6475 4.44935 29.6854 4.41294 29.7241C4.37653 29.7628 4.34076 29.8023 4.30564 29.8427C3.59727 30.6667 3.44648 31.3094 3.21109 32.3998C3.18559 31.2558 3.2119 30.1026 3.21153 28.9577L3.21003 22.0684L3.21734 6.47607Z" fill="#768824"/>
<path d="M18.7075 11.7556C18.648 11.964 18.5884 12.1724 18.5289 12.3809C18.4842 12.5744 18.4396 12.7605 18.3949 12.9391C18.2609 13.6388 18.1344 14.4427 18.0153 15.3509C17.8962 16.2441 17.7994 17.182 17.725 18.1645C17.6505 19.1322 17.6133 20.085 17.6133 21.0229C17.6133 22.1841 17.6729 23.2559 17.792 24.2385C17.9111 25.2062 18.0748 26.1068 18.2832 26.9405C18.5065 27.7593 18.7447 28.5409 18.9978 29.2852L16.4298 30.0668C16.2065 29.3969 15.9906 28.6004 15.7822 27.6774C15.5887 26.7544 15.4249 25.7644 15.2909 24.7074C15.1569 23.6356 15.0899 22.5562 15.0899 21.4695C15.0899 20.7251 15.1123 19.9808 15.1569 19.2364C15.2165 18.4772 15.276 17.7328 15.3356 17.0033C15.3951 16.259 15.4621 15.5518 15.5366 14.8819C15.6259 14.1971 15.7003 13.5793 15.7599 13.0285C15.7748 12.82 15.7896 12.5967 15.8045 12.3585C15.8194 12.1055 15.8194 11.8821 15.8045 11.6886L18.7075 11.7556ZM14.7326 14.2343C16.1469 14.2343 17.4719 14.2045 18.7075 14.145C19.958 14.0854 21.1565 13.9812 22.3028 13.8324C23.464 13.6835 24.6177 13.4676 25.764 13.1848L25.7864 15.7751C25.0122 15.9091 24.1562 16.0357 23.2183 16.1548C22.2953 16.259 21.3277 16.3483 20.3153 16.4227C19.3179 16.4972 18.3353 16.5567 17.3677 16.6014C16.4 16.6312 15.4919 16.646 14.6433 16.646C14.2563 16.646 13.8171 16.6386 13.3258 16.6237C12.8494 16.6088 12.373 16.5939 11.8966 16.579C11.4351 16.5493 11.0332 16.5269 10.6908 16.5121L10.6238 13.9217C10.8769 13.9515 11.2416 13.9961 11.718 14.0557C12.1944 14.1003 12.7006 14.145 13.2365 14.1897C13.7873 14.2194 14.286 14.2343 14.7326 14.2343ZM24.3572 17.4946C24.3125 17.6286 24.2455 17.8147 24.1562 18.0529C24.0669 18.2911 23.9776 18.5367 23.8883 18.7898C23.8138 19.0429 23.7543 19.2438 23.7096 19.3927C23.2779 20.7326 22.7494 21.9608 22.1241 23.0773C21.5138 24.1789 20.8513 25.1466 20.1367 25.9803C19.4221 26.7991 18.715 27.469 18.0153 27.9901C17.2858 28.5409 16.4521 29.0247 15.5142 29.4416C14.5763 29.8435 13.631 30.0445 12.6782 30.0445C12.1423 30.0445 11.6436 29.9328 11.1821 29.7095C10.7206 29.4862 10.3484 29.1364 10.0655 28.66C9.79755 28.1687 9.66357 27.5509 9.66357 26.8065C9.66357 26.0026 9.82733 25.2136 10.1548 24.4395C10.4824 23.6653 10.9364 22.9284 11.517 22.2287C12.0976 21.529 12.775 20.9112 13.5491 20.3753C14.3233 19.8244 15.1569 19.3927 16.0502 19.0801C16.7796 18.8121 17.5761 18.5963 18.4396 18.4325C19.3179 18.2687 20.1814 18.1869 21.0299 18.1869C22.4144 18.1869 23.6501 18.4399 24.7368 18.9461C25.8385 19.4523 26.7019 20.1445 27.3272 21.0229C27.9525 21.9012 28.2651 22.9284 28.2651 24.1045C28.2651 24.8935 28.1385 25.6677 27.8855 26.4269C27.6324 27.1713 27.2155 27.8635 26.6349 28.5037C26.0692 29.1438 25.3174 29.6946 24.3795 30.1561C23.4416 30.6176 22.2879 30.9526 20.9183 31.161L19.4444 28.8163C20.8736 28.6525 22.0348 28.3325 22.928 27.8561C23.8213 27.3648 24.4689 26.7768 24.8708 26.0919C25.2876 25.4071 25.4961 24.7 25.4961 23.9705C25.4961 23.3155 25.3174 22.7274 24.9601 22.2064C24.6177 21.6853 24.0967 21.2685 23.397 20.9559C22.7122 20.6284 21.8636 20.4646 20.8513 20.4646C19.8389 20.4646 18.9308 20.5762 18.1269 20.7996C17.3379 21.0229 16.6754 21.2611 16.1395 21.5141C15.3951 21.8714 14.7326 22.3255 14.152 22.8763C13.5714 23.4123 13.1174 23.978 12.7899 24.5735C12.4624 25.1689 12.2986 25.7198 12.2986 26.2259C12.2986 26.5832 12.3805 26.8586 12.5442 27.0522C12.708 27.2308 12.9685 27.3201 13.3258 27.3201C13.8617 27.3201 14.4796 27.1489 15.1793 26.8065C15.879 26.4492 16.5712 25.9505 17.256 25.3104C18.0599 24.566 18.8192 23.6728 19.5338 22.6307C20.2483 21.5886 20.8364 20.2934 21.2979 18.7451C21.3426 18.5963 21.3872 18.4027 21.4319 18.1645C21.4765 17.9263 21.5138 17.6881 21.5435 17.4499C21.5882 17.1969 21.618 16.9959 21.6329 16.847L24.3572 17.4946Z" fill="#ADBA45"/>
<path d="M28.7999 -0.46583C31.0893 -0.543951 33.3856 -0.465412 35.6759 -0.457309C35.6713 2.5419 35.6781 5.54095 35.6964 8.53985C35.6975 8.72828 35.4602 8.8161 35.3362 8.67417C34.3559 7.55166 33.2008 6.41023 32.201 5.36462C31.2134 6.48509 30.1631 7.53308 29.1521 8.62773C29.0274 8.7628 28.8001 8.67496 28.8001 8.4911L28.7999 -0.46583Z" fill="#F13F3F"/>
<path d="M33.4005 12.496C33.3976 12.2355 33.3999 12.009 33.6074 11.8085C33.616 11.8003 33.6247 11.7922 33.6337 11.7844C33.6427 11.7766 33.6519 11.769 33.6614 11.7616C33.6708 11.7543 33.6804 11.7471 33.6902 11.7401C33.7 11.7332 33.7099 11.7265 33.7201 11.72C33.7303 11.7136 33.7406 11.7073 33.7511 11.7013C33.7616 11.6953 33.7722 11.6896 33.783 11.6841C33.7938 11.6786 33.8048 11.6734 33.8158 11.6684C33.8269 11.6634 33.8381 11.6587 33.8495 11.6542C33.8608 11.6497 33.8723 11.6455 33.8838 11.6416C33.8954 11.6377 33.907 11.634 33.9188 11.6306C33.9306 11.6272 33.9424 11.6241 33.9543 11.6213C33.9663 11.6184 33.9783 11.6159 33.9903 11.6136C34.0024 11.6113 34.0145 11.6093 34.0267 11.6076C34.0389 11.6059 34.0511 11.6045 34.0633 11.6033C34.0755 11.6022 34.0878 11.6013 34.1001 11.6007C34.1124 11.6001 34.1247 11.5999 34.137 11.5999C34.3419 11.5997 34.5337 11.6798 34.6752 11.8167C34.8789 12.0138 34.9024 12.2399 34.8998 12.4999C34.4022 12.4853 33.8981 12.4868 33.4005 12.496Z" fill="#768824"/>
</g>
<defs>
<clipPath id="clip0_9_237">
<rect width="44" height="44" rx="2.00828" fill="white"/>
</clipPath>
</defs>
</svg>
