<svg width="44" height="44" viewBox="0 0 44 44" fill="none" xmlns="http://www.w3.org/2000/svg">
<g clip-path="url(#clip0_9_228)">
<rect y="6.02489" width="44.1822" height="38.1573" rx="2.00828" fill="#302A2B"/>
<path d="M15.2857 19.7496C18.5702 20.571 21.8135 21.5774 25.0711 22.4995C24.0264 26.2047 20.4301 38.9638 19.4222 42.6788C18.3388 40.7979 16.8779 38.758 15.6581 36.9382C13.6807 37.9546 11.6213 38.8347 9.62838 39.8281L15.2857 19.7496Z" fill="#52522E"/>
<path d="M28.6994 19.7496C25.4149 20.571 22.1716 21.5774 18.914 22.4995C19.9587 26.2047 23.555 38.9638 24.5629 42.6788C25.6463 40.7979 27.1072 38.758 28.327 36.9382C30.3045 37.9546 32.3638 38.8347 34.3567 39.8281L28.6994 19.7496Z" fill="#52522E"/>
<path d="M20.4133 0.607763C21.4508 -0.118773 22.8319 -0.118773 23.8694 0.607763L28.3372 3.73661C28.6045 3.9238 28.9004 4.06631 29.2134 4.15858L34.4453 5.70088C35.6602 6.05901 36.5213 7.13881 36.6001 8.40291L36.9396 13.8468C36.9599 14.1725 37.033 14.4927 37.156 14.795L39.2122 19.847C39.6897 21.0202 39.3823 22.3666 38.4431 23.2164L34.3986 26.876C34.1566 27.095 33.9518 27.3518 33.7922 27.6364L31.1244 32.3939C30.5049 33.4986 29.2605 34.0979 28.0106 33.8934L22.6276 33.0129C22.3056 32.9603 21.9771 32.9603 21.6551 33.0129L16.2721 33.8934C15.0222 34.0979 13.7779 33.4986 13.1584 32.3939L10.4905 27.6364C10.3309 27.3518 10.1261 27.095 9.88416 26.876L5.83957 23.2164C4.90039 22.3666 4.59307 21.0202 5.07053 19.847L7.12675 14.795C7.24976 14.4927 7.32285 14.1725 7.34316 13.8468L7.68258 8.40291C7.7614 7.13881 8.6225 6.05901 9.83738 5.70088L15.0693 4.15858C15.3823 4.06631 15.6782 3.9238 15.9455 3.73661L20.4133 0.607763Z" fill="#F3BE78"/>
<path d="M20.3223 3.5182C21.2762 2.4873 22.906 2.4873 23.8599 3.5182L26.5667 6.44336C26.9812 6.89127 27.5501 7.16526 28.1587 7.21003L32.1333 7.50245C33.5341 7.6055 34.5503 8.87976 34.339 10.2683L33.7397 14.2084C33.6479 14.8117 33.7884 15.4273 34.1329 15.9311L36.3824 19.2209C37.1752 20.3803 36.8125 21.9692 35.5952 22.6698L32.141 24.6578C31.6121 24.9622 31.2184 25.4559 31.0393 26.0393L29.8698 29.8492C29.4577 31.1919 27.9892 31.8991 26.6825 31.3842L22.9746 29.9231C22.4068 29.6994 21.7754 29.6994 21.2076 29.9231L17.4997 31.3842C16.193 31.8991 14.7245 31.1919 14.3124 29.8492L13.1429 26.0393C12.9638 25.4559 12.5701 24.9622 12.0411 24.6578L8.58701 22.6698C7.3697 21.9692 7.00703 20.3803 7.79981 19.2209L10.0493 15.9311C10.3938 15.4273 10.5343 14.8117 10.4425 14.2084L9.84317 10.2683C9.63194 8.87976 10.6481 7.6055 12.0489 7.50245L16.0235 7.21003C16.6321 7.16526 17.201 6.89127 17.6155 6.44336L20.3223 3.5182Z" fill="#F4EBEB"/>
<path d="M21.8651 14.8077C22.0102 14.795 22.1507 14.7945 22.2921 14.8346C22.5413 14.9053 22.7392 15.0756 22.8613 15.3031C23.1063 15.7597 22.967 16.2838 22.8294 16.7505C23.1267 16.5618 23.4574 16.3654 23.812 16.3177C24.1056 16.2782 24.4146 16.337 24.651 16.5232C24.8457 16.6766 24.9651 16.8996 24.9928 17.1456C24.9948 17.1619 24.9964 17.1782 24.9975 17.1946C24.9987 17.2109 24.9994 17.2273 24.9998 17.2437C25.0001 17.2601 25 17.2765 24.9996 17.2928C24.9991 17.3092 24.9982 17.3256 24.9969 17.342C24.9956 17.3583 24.9939 17.3746 24.9918 17.3909C24.9897 17.4071 24.9872 17.4233 24.9843 17.4395C24.9814 17.4556 24.978 17.4716 24.9743 17.4876C24.9706 17.5036 24.9665 17.5194 24.962 17.5352C24.9575 17.5509 24.9526 17.5666 24.9474 17.5821C24.9421 17.5976 24.9364 17.613 24.9304 17.6282C24.9243 17.6434 24.9179 17.6585 24.9111 17.6734C24.9043 17.6883 24.8972 17.703 24.8896 17.7175C24.8821 17.7321 24.8742 17.7464 24.866 17.7606C24.8577 17.7747 24.8491 17.7886 24.8402 17.8023C24.8313 17.8161 24.822 17.8296 24.8124 17.8428C24.8028 17.856 24.7928 17.869 24.7826 17.8818C24.4399 18.3006 23.8346 18.2946 23.3421 18.3464C23.5299 18.5907 23.7656 18.7967 23.9411 19.0517C24.1178 19.3085 24.219 19.5891 24.1538 19.9058C24.1086 20.1257 23.9764 20.3354 23.7877 20.458C23.5784 20.594 23.296 20.619 23.0555 20.5654C22.598 20.4634 22.3631 20.0837 22.1285 19.7137L22.0361 19.5763C21.9125 19.7782 21.7925 19.9866 21.6377 20.1665C21.4393 20.397 21.2 20.5799 20.8858 20.5982C20.8695 20.5992 20.8533 20.5998 20.837 20.6C20.8207 20.6002 20.8044 20.5999 20.7882 20.5993C20.7719 20.5987 20.7557 20.5976 20.7395 20.5961C20.7232 20.5947 20.7071 20.5928 20.691 20.5905C20.6748 20.5882 20.6588 20.5855 20.6428 20.5825C20.6268 20.5794 20.6109 20.5759 20.5951 20.572C20.5793 20.5681 20.5636 20.5638 20.548 20.5591C20.5324 20.5545 20.5169 20.5494 20.5016 20.5439C20.4862 20.5385 20.4711 20.5326 20.456 20.5264C20.4409 20.5201 20.426 20.5135 20.4113 20.5066C20.3966 20.4996 20.3821 20.4922 20.3677 20.4845C20.3533 20.4768 20.3392 20.4687 20.3252 20.4603C20.3113 20.4518 20.2976 20.4431 20.284 20.4339C20.2705 20.4248 20.2573 20.4154 20.2442 20.4056C20.2312 20.3958 20.2184 20.3857 20.2058 20.3752C20.1933 20.3648 20.1811 20.354 20.169 20.343C19.9837 20.1712 19.8762 19.9485 19.8685 19.694C19.8522 19.1514 20.3554 18.7343 20.6925 18.3701C20.3584 18.2781 20.0207 18.3117 19.697 18.156C19.4425 18.0337 19.2441 17.8223 19.1532 17.5521C19.0739 17.3165 19.0798 17.0579 19.1944 16.8349C19.3127 16.6047 19.5285 16.4192 19.7767 16.3466C20.2995 16.1937 20.7863 16.5173 21.2276 16.7542C21.1863 16.614 21.1494 16.4726 21.1168 16.33C21.0303 15.9517 21.0147 15.5782 21.2308 15.2387C21.3822 15.0007 21.5947 14.8687 21.8651 14.8077Z" fill="#F13F3F"/>
</g>
<defs>
<clipPath id="clip0_9_228">
<rect width="44" height="44" rx="2.00828" fill="white"/>
</clipPath>
</defs>
</svg>
