<svg width="44" height="44" viewBox="0 0 44 44" fill="none" xmlns="http://www.w3.org/2000/svg">
<g clip-path="url(#clip0_9_250)">
<rect x="22.0911" y="19.7816" width="22.0911" height="24.4006" rx="2.00828" fill="#F3BE78"/>
<rect width="22.0911" height="22.0911" rx="2.00828" fill="#FBB3B6"/>
<rect y="15.0622" width="22.0911" height="29.1201" rx="2.00828" fill="#302A2B"/>
<rect x="22.0911" y="4.57764e-05" width="22.0911" height="26.8105" rx="2.00828" fill="#768824"/>
<path d="M11.0455 3.5145L13.6166 8.38901C14.6377 10.3249 13.2341 12.6522 11.0455 12.6522C8.8568 12.6522 7.45317 10.3249 8.47429 8.38901L11.0455 3.5145Z" fill="#F13F3F"/>
<path d="M8.82153 21.2485C8.8205 20.7016 8.75403 19.4915 8.87689 19.0191C8.88983 18.97 8.90555 18.922 8.92406 18.8748C8.9426 18.8277 8.9638 18.7818 8.98767 18.7372C9.01154 18.6926 9.03793 18.6495 9.06684 18.608C9.09576 18.5665 9.12698 18.5268 9.1605 18.489C9.41468 18.2007 9.78597 18.0117 10.1705 18.0007C10.1943 18 10.218 17.9999 10.2417 18.0003C10.2654 18.0008 10.2891 18.0018 10.3128 18.0035C10.3364 18.0051 10.36 18.0073 10.3836 18.0102C10.4071 18.013 10.4306 18.0164 10.454 18.0204C10.4774 18.0244 10.5007 18.029 10.5238 18.0342C10.547 18.0393 10.57 18.0451 10.5929 18.0514C10.6158 18.0577 10.6385 18.0646 10.6611 18.072C10.6836 18.0795 10.7059 18.0874 10.7281 18.096C10.7502 18.1046 10.7721 18.1137 10.7938 18.1233C10.8155 18.133 10.837 18.1432 10.8582 18.154C10.8794 18.1647 10.9003 18.1759 10.9209 18.1877C10.9416 18.1995 10.9619 18.2118 10.982 18.2246C11.002 18.2373 11.0217 18.2506 11.0411 18.2644C11.0605 18.2782 11.0795 18.2924 11.0982 18.3072C11.1169 18.3219 11.1352 18.3371 11.1531 18.3527C11.171 18.3684 11.1886 18.3845 11.2057 18.401C11.2268 18.4212 11.2472 18.4421 11.2669 18.4638C11.2866 18.4854 11.3055 18.5077 11.3237 18.5306C11.342 18.5535 11.3594 18.577 11.376 18.6011C11.3927 18.6252 11.4085 18.6498 11.4235 18.675C11.4385 18.7001 11.4526 18.7258 11.4659 18.7519C11.4791 18.778 11.4915 18.8046 11.503 18.8315C11.5146 18.8585 11.5251 18.8858 11.5348 18.9135C11.5445 18.9412 11.5532 18.9691 11.5611 18.9974C11.69 19.4824 11.6262 20.8204 11.6338 21.3956C12.0289 21.0116 12.682 20.2362 13.1782 20.0596C13.4098 19.9773 13.6346 19.9802 13.8767 19.9781C13.7437 20.3488 13.97 19.5954 13.8767 19.9781C13.7645 20.438 13.1074 22.949 12.9963 23.4095C12.9255 23.7031 13.102 23.1281 12.9963 23.4095C12.4897 23.9067 11.9476 24.4413 11.4922 24.9844C10.6043 25.0046 9.71343 24.9569 8.82605 25.0001C8.01156 24.1896 7.13642 23.4456 6.3086 22.651C5.96725 22.3233 5.70326 21.9907 5.69999 21.493C5.6976 21.1341 5.84978 20.7588 6.10287 20.5055C6.37501 20.2332 6.7642 20.0827 7.14732 20.0922C7.84776 20.1095 8.37309 20.785 8.82153 21.2485Z" fill="#FBB3B6"/>
<path d="M2.90085 26.7C3.77213 26.7284 4.67917 27.0111 5.48294 27.3394C7.43262 28.1356 9.40029 29.7048 10.5618 31.4614C10.7407 31.7319 10.9433 32.0224 11.0667 32.3225C11.0862 32.3697 11.1066 32.4164 11.1266 32.4633C10.9121 33.3756 10.5963 33.8297 11.159 34.7356C11.4062 35.1336 11.8438 35.4579 12.2998 35.573C12.6812 35.6677 13.0931 35.7426 13.4617 35.8755C14.2179 36.0462 14.9706 36.2311 15.7197 36.4303C16.213 36.5644 16.7036 36.7174 17.2 36.8381C17.0583 36.986 16.9356 37.1712 16.8092 37.3335C16.6016 37.6001 16.3895 37.8564 16.1649 38.1088C14.8709 39.5628 13.5904 40.6686 11.9366 41.7C10.5305 41.3205 8.89265 40.0573 7.88493 39.0427C7.77116 38.9297 7.65899 38.8151 7.54842 38.699C7.43785 38.5828 7.32892 38.4652 7.22162 38.3461C7.11435 38.2269 7.00875 38.1063 6.90481 37.9842C6.80088 37.8621 6.69865 37.7386 6.59814 37.6137C6.49766 37.4888 6.39892 37.3625 6.30192 37.2348C6.20496 37.1071 6.10977 36.9781 6.01635 36.8478C5.92297 36.7175 5.83142 36.5859 5.74171 36.4531C5.65196 36.3202 5.5641 36.1862 5.47813 36.0509C5.39212 35.9156 5.30803 35.7791 5.22585 35.6415C5.14364 35.5039 5.06337 35.3652 4.98506 35.2253C4.90671 35.0854 4.83033 34.9445 4.75594 34.8025C4.68154 34.6606 4.60912 34.5176 4.53868 34.3736C4.46826 34.2296 4.39986 34.0847 4.33346 33.9388C4.26707 33.7929 4.20271 33.6462 4.14039 33.4985C4.0781 33.3508 4.01787 33.2023 3.95969 33.053C3.90151 32.9036 3.84543 32.7535 3.79146 32.6026C3.44663 31.6511 3.17213 30.6553 3.03168 29.6517C2.89445 28.6713 2.89809 27.6878 2.90085 26.7Z" fill="#9DAF47"/>
<path d="M12.3525 35.6001C12.6963 35.6926 13.0677 35.7657 13.4 35.8955C13.3209 36.3054 13.1641 36.7159 13.0461 37.1151C12.8834 37.6657 12.7467 38.2252 12.595 38.7795C12.5017 39.1207 12.3866 39.4551 12.3078 39.8001L12.316 39.797L12.3 39.7572C12.3533 39.2626 12.3894 38.7665 12.4082 38.269C12.427 37.7714 12.4285 37.2738 12.4128 36.7761C12.3978 36.4041 12.3398 36.0336 12.3286 35.6642C12.3274 35.6225 12.3238 35.6437 12.3525 35.6001Z" fill="#52522E"/>
<path d="M36.8621 -0.229466C36.808 -0.0403236 36.754 0.148818 36.6999 0.33796C36.6594 0.51359 36.6189 0.682466 36.5784 0.844588C36.4568 1.47956 36.3419 2.20911 36.2338 3.03322C36.1258 3.84383 36.0379 4.69497 35.9704 5.58663C35.9028 6.46479 35.8691 7.32944 35.8691 8.18057C35.8691 9.23436 35.9231 10.2071 36.0312 11.0988C36.1393 11.9769 36.2879 12.7943 36.477 13.5508C36.6797 14.2939 36.8958 15.0032 37.1255 15.6787L34.795 16.388C34.5924 15.78 34.3965 15.0572 34.2073 14.2196C34.0317 13.382 33.8831 12.4835 33.7615 11.5243C33.6399 10.5516 33.5791 9.57211 33.5791 8.58588C33.5791 7.91037 33.5994 7.23487 33.6399 6.55936C33.6939 5.87035 33.748 5.19484 33.802 4.53285C33.8561 3.85734 33.9169 3.21561 33.9844 2.60766C34.0655 1.98619 34.133 1.42552 34.1871 0.925649C34.2006 0.736507 34.2141 0.533856 34.2276 0.317694C34.2411 0.0880223 34.2411 -0.114629 34.2276 -0.290261L36.8621 -0.229466ZM33.2549 2.01997C34.5383 2.01997 35.7407 1.99295 36.8621 1.93891C37.9969 1.88487 39.0845 1.7903 40.1248 1.65519C41.1785 1.52009 42.2256 1.3242 43.2659 1.0675L43.2861 3.41826C42.5836 3.53985 41.8068 3.65469 40.9556 3.76277C40.118 3.85734 39.2398 3.9384 38.3212 4.00595C37.416 4.0735 36.5243 4.12754 35.6462 4.16807C34.768 4.19509 33.9439 4.2086 33.1738 4.2086C32.8225 4.2086 32.424 4.20185 31.9782 4.18834C31.5458 4.17483 31.1135 4.16132 30.6812 4.14781C30.2624 4.12079 29.8976 4.10052 29.5869 4.08701L29.5261 1.73626C29.7557 1.76328 30.0867 1.80381 30.5191 1.85785C30.9514 1.89838 31.4107 1.93891 31.8971 1.97944C32.397 2.00646 32.8496 2.01997 33.2549 2.01997ZM41.9891 4.97868C41.9486 5.10027 41.8878 5.26915 41.8068 5.48531C41.7257 5.70147 41.6446 5.92439 41.5636 6.15406C41.496 6.38373 41.442 6.56612 41.4015 6.70122C41.0097 7.91713 40.5301 9.03171 39.9626 10.045C39.4087 11.0447 38.8075 11.9229 38.159 12.6794C37.5105 13.4225 36.8688 14.0304 36.2338 14.5033C35.5718 15.0032 34.8153 15.4423 33.9641 15.8205C33.113 16.1853 32.2551 16.3677 31.3905 16.3677C30.9041 16.3677 30.4515 16.2664 30.0327 16.0637C29.6139 15.8611 29.2761 15.5436 29.0194 15.1113C28.7763 14.6654 28.6547 14.1048 28.6547 13.4292C28.6547 12.6997 28.8033 11.9837 29.1005 11.2811C29.3977 10.5786 29.8098 9.90987 30.3367 9.27489C30.8636 8.63992 31.4783 8.07925 32.1808 7.59288C32.8833 7.09301 33.6399 6.70122 34.4505 6.41751C35.1125 6.17432 35.8353 5.97843 36.6189 5.82982C37.416 5.6812 38.1996 5.6069 38.9696 5.6069C40.2261 5.6069 41.3474 5.83657 42.3337 6.29591C43.3334 6.75526 44.117 7.38348 44.6844 8.18057C45.2518 8.97767 45.5355 9.90987 45.5355 10.9772C45.5355 11.6932 45.4207 12.3957 45.191 13.0847C44.9614 13.7602 44.5831 14.3885 44.0562 14.9694C43.5428 15.5503 42.8605 16.0502 42.0094 16.469C41.1583 16.8878 40.1112 17.1918 38.8683 17.381L37.5308 15.2531C38.8278 15.1045 39.8816 14.814 40.6922 14.3817C41.5028 13.9359 42.0905 13.4022 42.4552 12.7808C42.8335 12.1593 43.0227 11.5176 43.0227 10.8556C43.0227 10.2611 42.8605 9.72748 42.5363 9.25463C42.2256 8.78177 41.7527 8.40349 41.1177 8.11978C40.4963 7.82256 39.7262 7.67395 38.8075 7.67395C37.8888 7.67395 37.0647 7.77527 36.3352 7.97792C35.6191 8.18057 35.0179 8.39674 34.5316 8.62641C33.8561 8.95065 33.2549 9.36271 32.728 9.86258C32.2011 10.3489 31.789 10.8623 31.4918 11.4027C31.1946 11.9431 31.046 12.443 31.046 12.9024C31.046 13.2266 31.1203 13.4765 31.2689 13.6522C31.4175 13.8143 31.6539 13.8953 31.9782 13.8953C32.4645 13.8953 33.0252 13.74 33.6602 13.4292C34.2951 13.105 34.9234 12.6524 35.5448 12.0715C36.2744 11.396 36.9634 10.5854 37.6119 9.63967C38.2604 8.69396 38.794 7.51858 39.2128 6.11353C39.2534 5.97843 39.2939 5.8028 39.3344 5.58663C39.3749 5.37047 39.4087 5.15431 39.4357 4.93815C39.4763 4.70848 39.5033 4.52609 39.5168 4.39099L41.9891 4.97868Z" fill="#F3BE78"/>
<rect x="16.0817" y="11.0457" width="18.5156" height="25.179" rx="2.00828" transform="rotate(13.8802 16.0817 11.0457)" fill="white"/>
<path d="M22.1 21.3919C22.6533 20.2397 23.3475 19.4374 24.4531 18.7376C24.6823 18.5925 24.9278 18.426 25.187 18.3379C25.3627 18.2781 25.5167 18.2885 25.6825 18.3735C25.8304 18.4493 25.9386 18.5759 25.9808 18.7325C26.0259 18.8996 25.9895 19.0789 25.8918 19.2227C25.722 19.4727 24.9934 19.7125 24.665 19.9441C23.9968 20.4154 23.5148 21.0454 23.0986 21.7251C22.9059 21.8128 22.7151 21.9045 22.5264 22C22.3995 21.7868 22.2546 21.5872 22.1 21.3919Z" fill="#9DAF47"/>
<path d="M23.2105 21.6541C23.6492 21.5164 24.0801 21.4175 24.5408 21.3934C25.6524 21.3351 26.7016 21.5799 27.5413 22.3441C28.4067 23.1317 28.7393 24.2341 28.7944 25.3782C28.7966 25.433 28.7982 25.4878 28.7991 25.5427C28.8 25.5975 28.8002 25.6523 28.7997 25.7071C28.7993 25.762 28.7982 25.8168 28.7964 25.8716C28.7946 25.9264 28.7921 25.9812 28.789 26.0359C28.7859 26.0907 28.782 26.1454 28.7776 26.2001C28.7731 26.2547 28.768 26.3093 28.7622 26.3638C28.7564 26.4184 28.7499 26.4728 28.7428 26.5272C28.7356 26.5816 28.7278 26.6359 28.7193 26.69C28.7109 26.7442 28.7018 26.7983 28.6919 26.8522C28.6822 26.9062 28.6717 26.96 28.6606 27.0137C28.6495 27.0674 28.6378 27.121 28.6253 27.1744C28.6129 27.2278 28.5999 27.281 28.5862 27.3341C28.5725 27.3872 28.5581 27.4401 28.5431 27.4929C28.5281 27.5456 28.5124 27.5982 28.4961 27.6506C28.4798 27.7029 28.4629 27.7551 28.4453 27.807C28.4277 27.859 28.4095 27.9107 28.3907 27.9622C28.3718 28.0137 28.3524 28.0649 28.3323 28.116C28.3122 28.167 28.2915 28.2177 28.2702 28.2683C28.2488 28.3188 28.2269 28.369 28.2043 28.419C28.1817 28.469 28.1586 28.5187 28.1348 28.5681C28.111 28.6175 28.0866 28.6666 28.0616 28.7154C28.0366 28.7642 28.0111 28.8127 27.9849 28.8609C27.9588 28.9091 27.932 28.957 27.9046 29.0045C27.8773 29.052 27.8494 29.0992 27.8209 29.1461C27.7924 29.1929 27.7634 29.2394 27.7337 29.2856C27.7041 29.3317 27.6739 29.3775 27.6431 29.4228C27.6124 29.4683 27.5811 29.5133 27.5492 29.5579C27.5174 29.6025 27.485 29.6468 27.452 29.6906C27.4191 29.7344 27.3857 29.7779 27.3517 29.8209C27.3177 29.8639 27.2832 29.9065 27.2481 29.9487C27.2131 29.9909 27.1775 30.0326 27.1415 30.0739C27.1054 30.1152 27.0689 30.1561 27.0318 30.1965C26.9932 30.2376 26.9542 30.2782 26.9146 30.3184C26.8751 30.3586 26.835 30.3982 26.7946 30.4374C26.754 30.4766 26.713 30.5153 26.6716 30.5535C26.6302 30.5917 26.5883 30.6294 26.5459 30.6665C26.5035 30.7037 26.4607 30.7404 26.4175 30.7765C26.3743 30.8127 26.3306 30.8483 26.2865 30.8834C26.2424 30.9185 26.1978 30.953 26.1529 30.987C26.108 31.0211 26.0626 31.0545 26.0169 31.0874C25.9711 31.1203 25.925 31.1527 25.8784 31.1845C25.8319 31.2163 25.785 31.2475 25.7377 31.2782C25.6904 31.3088 25.6428 31.3389 25.5947 31.3684C25.5467 31.3979 25.4984 31.4269 25.4497 31.4552C25.4009 31.4835 25.3519 31.5113 25.3025 31.5384C25.2531 31.5656 25.2034 31.5922 25.1534 31.6181C25.1034 31.6441 25.0531 31.6694 25.0024 31.6941C24.9517 31.7188 24.9008 31.743 24.8496 31.7664C24.7984 31.7899 24.7469 31.8128 24.6951 31.8351C24.6433 31.8573 24.5913 31.8789 24.539 31.8999C24.4867 31.9209 24.4341 31.9413 24.3813 31.961C24.3285 31.9807 24.2755 31.9998 24.2223 32.0183C24.169 32.0367 24.1156 32.0545 24.0619 32.0716C24.0082 32.0888 23.9543 32.1053 23.9002 32.1211C23.8461 32.1369 23.7919 32.1521 23.7374 32.1666C23.683 32.1812 23.6284 32.195 23.5736 32.2082C23.5188 32.2214 23.4638 32.234 23.4087 32.2458C23.3537 32.2577 23.2984 32.2689 23.2431 32.2795C23.1877 32.29 23.1322 32.2999 23.0766 32.3091C23.021 32.3182 22.9654 32.3268 22.9096 32.3346C22.8537 32.3425 22.7978 32.3496 22.7418 32.3562C22.6859 32.3626 22.6298 32.3684 22.5737 32.3736C22.5176 32.3787 22.4614 32.3832 22.4052 32.387C22.349 32.3907 22.2927 32.3938 22.2364 32.3962C20.5754 32.4555 18.7958 31.813 17.5779 30.6767C16.1651 29.3586 15.2607 27.6013 15.2028 25.6533C15.1549 24.0433 15.7194 22.255 16.8441 21.0744C17.4424 20.4462 18.2607 20.1204 19.1209 20.1014C20.3589 20.0739 21.3471 20.4596 22.2389 21.317C22.3893 21.5146 22.5304 21.7166 22.6538 21.9323C22.8374 21.8356 23.023 21.7429 23.2105 21.6541Z" fill="#F13F3F"/>
<path d="M34.8453 34.3418H40.3861L42.7763 38.4515L37.6157 40.2662L32.8353 38.0245L34.8453 34.3418Z" fill="white"/>
<path d="M33.6735 36.1257C33.9348 36.1193 34.3181 36.0631 34.565 36.1404C34.7568 36.4014 34.4193 36.9479 34.604 37.2843C34.6432 37.3557 34.7033 37.4058 34.7823 37.4285C35.3972 37.6055 35.591 36.5909 36.0056 36.3653C36.0714 36.3601 36.1077 36.3527 36.1628 36.3995C36.324 36.5364 36.3136 36.9776 36.344 37.1859C36.3945 37.5312 36.5102 37.9686 36.8112 38.1858C37.0031 38.3243 37.2613 38.3631 37.4921 38.326C38.5451 38.1564 38.2265 36.7765 38.5132 36.4423C38.5717 36.3741 38.6077 36.371 38.691 36.3636C38.9573 36.4763 39.2122 37.0885 39.4506 37.3178C39.5474 37.4109 39.6758 37.5054 39.8172 37.4974C39.9192 37.4916 40.0179 37.4599 40.0856 37.3806C40.2846 37.1476 40.1785 36.6903 40.1696 36.4143C40.1661 36.3054 40.185 36.2504 40.2579 36.172C40.5623 36.0616 41.009 36.1372 41.3322 36.154C43.2964 38.7875 45.2856 41.4023 47.2999 43.9983C46.7295 44.0041 46.1579 43.9931 45.5874 43.9901L27.3999 43.9878L31.7859 38.5144C32.1533 38.0557 32.5184 37.5951 32.8811 37.1328C33.1411 36.7965 33.3869 36.4402 33.6735 36.1257Z" fill="#52522E"/>
<path d="M41.6071 30.1001C41.6581 30.163 41.6871 30.254 41.7189 30.3291C41.8772 30.7022 41.9796 31.2608 42.341 31.4845C42.6567 31.68 43.0487 31.7549 43.3793 31.9304L43.4 31.9417C43.1789 32.0259 42.9593 32.1139 42.7411 32.2055C42.5751 32.2754 42.3973 32.3463 42.2616 32.4686C42.0106 32.6948 41.7979 33.3635 41.6616 33.698L41.6574 33.7001C41.583 33.6567 41.3268 32.9785 41.2684 32.8425C41.2187 32.7268 41.1758 32.6246 41.0889 32.5315C40.8414 32.2661 40.2473 32.0911 39.9 31.9523C40.1911 31.821 40.4965 31.7125 40.7819 31.57C40.9018 31.51 41.0132 31.4349 41.0972 31.3283C41.3305 31.032 41.4866 30.4609 41.6071 30.1001Z" fill="white"/>
</g>
<defs>
<clipPath id="clip0_9_250">
<rect width="44" height="44" rx="2.00828" fill="white"/>
</clipPath>
</defs>
</svg>
