<svg width="22" height="26" viewBox="0 0 22 26" fill="none" xmlns="http://www.w3.org/2000/svg">
<path fill-rule="evenodd" clip-rule="evenodd" d="M11.8635 2.46243C11.8635 4.40382 11.6867 5.2797 11.0279 6.60064C10.1954 8.27065 8.45966 9.92233 7.12211 10.3175C6.33148 10.5513 5.83729 9.77002 5.4435 7.66275C5.31809 6.99312 5.08114 6.44528 4.91653 6.44528C4.19316 6.44528 1.85068 9.04476 0.99143 10.8006C-0.24674 13.3309 -0.336991 17.2767 0.787265 19.7348C1.8162 21.9845 3.9944 24.2149 6.05937 25.1328C8.71993 26.3157 13.2116 26.2842 15.7697 25.0643C16.7922 24.5769 18.22 23.5846 18.9427 22.8594C19.6654 22.1341 20.6541 20.7012 21.1398 19.6751C21.8983 18.0732 22.0194 17.3778 21.9977 14.7563C21.967 11.0411 21.1696 8.72792 18.8626 5.66336C17.5308 3.89363 12.8739 0 12.0893 0C11.9653 0 11.8635 1.10825 11.8635 2.46243Z" fill="#F4BD73"/>
</svg>
