<svg width="28" height="29" viewBox="0 0 28 29" fill="none" xmlns="http://www.w3.org/2000/svg">
<path d="M13.7621 0.418409C13.6773 0.715008 13.5926 1.01161 13.5078 1.3082C13.4443 1.58362 13.3807 1.84844 13.3172 2.10266C13.1265 3.09839 12.9464 4.24241 12.7769 5.53473C12.6075 6.80586 12.4698 8.14055 12.3638 9.5388C12.2579 10.9159 12.2049 12.2717 12.2049 13.6064C12.2049 15.2589 12.2897 16.7843 12.4592 18.1825C12.6286 19.5596 12.8617 20.8413 13.1583 22.0277C13.4761 23.1929 13.815 24.3052 14.1752 25.3644L10.5207 26.4767C10.2029 25.5233 9.8957 24.3899 9.59911 23.0764C9.32369 21.7629 9.09065 20.354 8.89998 18.8499C8.70931 17.3245 8.61398 15.7885 8.61398 14.242C8.61398 13.1827 8.64576 12.1234 8.70931 11.0642C8.79405 9.9837 8.8788 8.92442 8.96354 7.88633C9.04828 6.82705 9.14362 5.82073 9.24954 4.86738C9.37666 3.89285 9.48259 3.01364 9.56733 2.22978C9.58851 1.93318 9.6097 1.61539 9.63088 1.27642C9.65207 0.916271 9.65207 0.598487 9.63088 0.323075L13.7621 0.418409ZM8.10552 3.94581C10.1182 3.94581 12.0037 3.90344 13.7621 3.8187C15.5417 3.73395 17.2471 3.58565 18.8784 3.3738C20.5309 3.16194 22.1727 2.85475 23.804 2.45222L23.8358 6.13852C22.7342 6.32919 21.516 6.50926 20.1813 6.67875C18.8678 6.82705 17.4907 6.95416 16.0501 7.06009C14.6307 7.16602 13.2324 7.25076 11.8554 7.31432C10.4783 7.35669 9.18599 7.37787 7.97841 7.37787C7.42758 7.37787 6.80261 7.36728 6.10349 7.3461C5.42555 7.32491 4.74761 7.30372 4.06967 7.28254C3.41292 7.24017 2.84091 7.20839 2.35364 7.1872L2.2583 3.50091C2.61846 3.54328 3.1375 3.60684 3.81544 3.69158C4.49338 3.75514 5.21369 3.81869 5.97637 3.88225C6.76024 3.92462 7.46996 3.94581 8.10552 3.94581ZM21.802 8.58545C21.7384 8.77612 21.6431 9.04094 21.516 9.37991C21.3889 9.71888 21.2618 10.0684 21.1347 10.4286C21.0287 10.7888 20.944 11.0748 20.8804 11.2866C20.266 13.1933 19.514 14.9411 18.6242 16.53C17.7556 18.0978 16.8128 19.4748 15.7959 20.6612C14.779 21.8264 13.7727 22.7798 12.7769 23.5213C11.7388 24.3052 10.5525 24.9937 9.21777 25.5869C7.88307 26.1589 6.53779 26.4449 5.18191 26.4449C4.41923 26.4449 3.70951 26.286 3.05276 25.9682C2.39601 25.6504 1.86637 25.1526 1.46384 24.4746C1.0825 23.7755 0.891832 22.8963 0.891832 21.837C0.891832 20.693 1.12487 19.5702 1.59096 18.4685C2.05704 17.3669 2.7032 16.3182 3.52944 15.3225C4.35567 14.3267 5.31962 13.4475 6.42127 12.6849C7.52292 11.901 8.70931 11.2866 9.98045 10.8417C11.0185 10.4604 12.152 10.1532 13.3807 9.92014C14.6307 9.6871 15.8594 9.57058 17.067 9.57058C19.0373 9.57058 20.7957 9.93074 22.3422 10.651C23.91 11.3714 25.1387 12.3565 26.0285 13.6064C26.9183 14.8564 27.3632 16.3182 27.3632 17.9919C27.3632 19.1147 27.1831 20.2163 26.823 21.2968C26.4628 22.3561 25.8696 23.3412 25.0434 24.2522C24.2383 25.1632 23.1685 25.947 21.8338 26.6038C20.4991 27.2605 18.8572 27.7372 16.9081 28.0338L14.8108 24.6971C16.8446 24.464 18.4971 24.0086 19.7682 23.3306C21.0393 22.6315 21.9609 21.7947 22.5329 20.8201C23.1261 19.8456 23.4227 18.8393 23.4227 17.8012C23.4227 16.869 23.1685 16.0322 22.66 15.2907C22.1727 14.5492 21.4313 13.956 20.4355 13.5111C19.461 13.045 18.2534 12.812 16.8128 12.812C15.3722 12.812 14.0799 12.9709 12.9358 13.2887C11.813 13.6064 10.8702 13.9454 10.1076 14.3056C9.04828 14.814 8.10552 15.4602 7.27929 16.244C6.45305 17.0067 5.80689 17.8118 5.3408 18.6592C4.87472 19.5066 4.64168 20.2905 4.64168 21.0108C4.64168 21.5192 4.7582 21.9112 4.99124 22.1866C5.22428 22.4408 5.59503 22.5679 6.10349 22.5679C6.86617 22.5679 7.74537 22.3243 8.74109 21.837C9.73681 21.3286 10.7219 20.6189 11.6965 19.7079C12.8405 18.6486 13.921 17.3775 14.9379 15.8945C15.9548 14.4115 16.7916 12.5683 17.4484 10.365C17.5119 10.1532 17.5755 9.87777 17.639 9.5388C17.7026 9.19983 17.7556 8.86086 17.7979 8.5219C17.8615 8.16174 17.9039 7.87573 17.925 7.66388L21.802 8.58545Z" fill="#788A25"/>
</svg>
