<svg width="44" height="44" viewBox="0 0 44 44" fill="none" xmlns="http://www.w3.org/2000/svg">
<g clip-path="url(#clip0_9_268)">
<rect y="6.02484" width="44.1822" height="38.1573" rx="2.00828" fill="#302A2B"/>
<rect x="2.0083" y="-4.57764e-05" width="35.9482" height="39.4627" rx="2.00828" fill="#F4EBEB"/>
<rect x="5.82397" y="12.6522" width="7.43064" height="23.2961" rx="2.00828" fill="#FBB3B6"/>
<rect x="14.7609" y="19.6811" width="7.43064" height="16.2671" rx="2.00828" fill="#FBB3B6"/>
<rect x="23.7981" y="28.3168" width="7.43064" height="7.63147" rx="2.00828" fill="#FBB3B6"/>
<path d="M29.76 -0.0807678C30.6032 -0.112291 31.4579 -0.0816487 32.3023 -0.0821579C32.8944 -0.0825282 33.5615 -0.127196 34.1443 -0.0735465C34.2721 -0.0617891 34.3513 -0.0520684 34.4336 0.0537484C34.4988 0.137393 34.5042 0.210342 34.5094 0.312178C34.5303 0.729288 34.5133 1.15529 34.5132 1.57318L34.5125 4.0659L34.5126 5.28154C34.5126 5.42712 34.5356 5.62639 34.5071 5.76711C34.4901 5.85117 34.4397 5.90575 34.3735 5.95556C34.118 6.01999 33.7407 5.72092 33.5144 5.60746C33.0156 5.37643 32.5233 5.14642 32.0367 4.88984C31.7846 4.98566 31.5372 5.1436 31.2945 5.26562L29.838 5.98773C29.7535 5.9613 29.6524 5.92876 29.5874 5.86617C29.5289 5.80979 29.5155 5.75054 29.5093 5.67241C29.4908 5.44101 29.5055 5.20118 29.5065 4.96872L29.5085 3.75798C29.5089 2.56433 29.4944 1.36863 29.5152 0.175302C29.5811 0.0613388 29.6474 -0.0109177 29.76 -0.0807678Z" fill="#F13F3F"/>
<path d="M-8.33435 25.957L8.16778 4.21767C8.31098 4.02903 8.58547 4.0046 8.75972 4.165L16.8982 11.6561C17.0887 11.8315 17.393 11.7834 17.5201 11.5578L29.0699 -8.93687" stroke="#52522E" stroke-width="3.71532" stroke-linecap="round"/>
</g>
<defs>
<clipPath id="clip0_9_268">
<rect width="44" height="44" rx="2.00828" fill="white"/>
</clipPath>
</defs>
</svg>
