<svg width="41" height="41" viewBox="0 0 41 41" fill="none" xmlns="http://www.w3.org/2000/svg">
<path fill-rule="evenodd" clip-rule="evenodd" d="M19.2801 0.301784C19.0725 0.50825 18.9026 1.10594 18.9026 1.62899C18.9026 3.6063 15.162 4.19711 14.4426 2.33362C14.0614 1.34629 12.185 1.32459 11.8075 2.30292C11.6499 2.71109 11.6472 3.52478 11.8011 4.11082C12.1642 5.49097 9.60678 7.35234 8.65207 6.40313C8.31555 6.06855 7.48916 5.79485 6.81558 5.79485C5.89282 5.79485 5.59091 6.09502 5.59091 7.01247C5.59091 7.68216 5.8662 8.50379 6.20271 8.83837C7.15743 9.78759 5.28527 12.3303 3.89713 11.9692C1.40305 11.3207 0.423844 13.2573 2.3961 14.9365C2.98182 15.4352 3.46104 16.1573 3.46104 16.5412C3.46104 17.6132 2.24914 18.9198 1.06494 19.1246C0.337052 19.2506 0 19.7234 0 20.6181C0 21.5128 0.337052 21.9855 1.06494 22.1115C2.24914 22.3164 3.46104 23.6229 3.46104 24.695C3.46104 25.0788 2.98182 25.8009 2.3961 26.2996C0.423844 27.9789 1.40305 29.9154 3.89713 29.2669C5.28527 28.9058 7.15743 31.4486 6.20271 32.3978C5.8662 32.7323 5.59091 33.554 5.59091 34.2237C5.59091 35.1411 5.89282 35.4413 6.81558 35.4413C7.48916 35.4413 8.31555 35.1676 8.65207 34.833C9.60678 33.8838 12.1642 35.7452 11.8011 37.1253C11.1488 39.605 13.0966 40.5786 14.7856 38.6177C15.2871 38.0354 16.0134 37.5589 16.3995 37.5589C17.4777 37.5589 18.7918 38.7638 18.9979 39.9412C19.1246 40.6649 19.6001 41 20.5 41C21.3999 41 21.8754 40.6649 22.0021 39.9412C22.2082 38.7638 23.5223 37.5589 24.6005 37.5589C24.9866 37.5589 25.7129 38.0354 26.2144 38.6177C27.9034 40.5786 29.8512 39.605 29.1989 37.1253C28.8358 35.7452 31.3932 33.8838 32.3479 34.833C32.6845 35.1676 33.5108 35.4413 34.1844 35.4413C35.1072 35.4413 35.4091 35.1411 35.4091 34.2237C35.4091 33.554 35.1338 32.7323 34.7973 32.3978C33.8426 31.4486 35.7147 28.9058 37.1029 29.2669C39.597 29.9154 40.5762 27.9789 38.6039 26.2996C38.0182 25.8009 37.539 25.0788 37.539 24.695C37.539 23.6229 38.7509 22.3164 39.9351 22.1115C40.6629 21.9855 41 21.5128 41 20.6181C41 19.7234 40.6629 19.2506 39.9351 19.1246C38.7509 18.9198 37.539 17.6132 37.539 16.5412C37.539 16.1573 38.0182 15.4352 38.6039 14.9365C40.5762 13.2573 39.597 11.3207 37.1029 11.9692C35.7147 12.3303 33.8426 9.78759 34.7973 8.83837C35.1338 8.50379 35.4091 7.68216 35.4091 7.01247C35.4091 6.09502 35.1072 5.79485 34.1844 5.79485C33.5108 5.79485 32.6845 6.06855 32.3479 6.40313C31.3932 7.35234 28.8358 5.49097 29.1989 4.11082C29.8512 1.63111 27.9034 0.657541 26.2144 2.61844C25.7129 3.20078 24.9866 3.67724 24.6005 3.67724C23.5218 3.67724 22.2076 2.4718 22.0037 1.29494C21.8216 0.244608 20.0043 -0.418202 19.2801 0.301784ZM16.8654 8.47309L15.6269 8.96702L17.3552 12.0132C21.0468 18.519 21.8605 19.0299 28.536 19.0299C33.2813 19.0299 33.3458 19.0124 32.9896 17.8387C31.6792 13.5193 28.0797 9.65206 24.33 8.53503C21.8764 7.80392 18.6119 7.77692 16.8654 8.47309ZM10.7979 12.6479C6.68566 17.4242 6.71868 23.9914 10.8788 28.6491L12.7792 30.7767L15.162 26.6236C18.245 21.2507 18.2546 19.9288 15.2504 14.7947C13.9719 12.6109 12.8618 10.7532 12.7829 10.6664C12.7041 10.5796 11.8107 11.4711 10.7979 12.6479ZM21.837 23.2937C20 24.4594 15.5204 31.7609 16.2168 32.4534C17.0491 33.2808 21.5112 33.4762 23.9664 32.7927C27.979 31.6757 31.6323 27.8719 32.9896 23.3974C33.3468 22.22 33.2941 22.2068 28.3896 22.2449C24.4664 22.2756 23.0958 22.4948 21.837 23.2937Z" fill="#302A2B"/>
</svg>
