<svg width="23" height="30" viewBox="0 0 23 30" fill="none" xmlns="http://www.w3.org/2000/svg">
<path fill-rule="evenodd" clip-rule="evenodd" d="M0.766667 0.769231C0.0291333 1.50923 0 2.05115 0 15C0 27.9488 0.0291333 28.4908 0.766667 29.2308C1.49385 29.9604 2.04432 30 11.5 30C20.9557 30 21.5061 29.9604 22.2333 29.2308C22.9609 28.5008 23 27.9488 23 18.3588V8.25615L18.873 4.12808L14.7457 0H8.1397C2.04432 0 1.47392 0.0596154 0.766667 0.769231ZM13.8 5.50077C13.8 7.96038 13.9384 8.92346 14.3129 9.06769C14.5954 9.17654 16.1521 9.21423 17.7733 9.15192L20.7203 9.03846L17.2603 5.585L13.8 2.13154V5.50077ZM4.74222 15.5677C4.61878 15.89 4.61878 16.4177 4.74222 16.74C4.93312 17.2392 5.94435 17.3104 11.5874 17.2208L18.2083 17.1154V16.1538V15.1923L11.5874 15.0869C5.94435 14.9973 4.93312 15.0685 4.74222 15.5677ZM4.7426 20.1815C4.61917 20.505 4.61917 21.0335 4.7426 21.3569C4.93235 21.8527 5.81862 21.9277 10.4378 21.8377L15.9083 21.7308V20.7692V19.8077L10.4378 19.7008C5.81862 19.6108 4.93235 19.6858 4.7426 20.1815Z" fill="#788A25"/>
</svg>
