<svg width="36" height="37" viewBox="0 0 36 37" fill="none" xmlns="http://www.w3.org/2000/svg">
<rect y="6.5" width="36.758" height="31.7456" rx="1.67082" fill="#302A2B"/>
<path d="M2.95386 3.75155C2.95386 2.96594 3.50117 2.28645 4.26874 2.11909L13.5799 0.088932C13.8477 0.0305414 14.1258 0.0389328 14.3896 0.113366L22.2915 2.34299C22.4392 2.38465 22.5918 2.40578 22.7453 2.40578H31.283C32.2058 2.40578 32.9539 3.15383 32.9539 4.0766V32.3292C32.9539 33.2519 32.2058 34 31.283 34H22.7302C22.5867 34 22.4438 33.9815 22.305 33.945L14.3644 31.8554C14.1167 31.7902 13.8573 31.7828 13.6062 31.8339L4.95763 33.5925C3.92226 33.8031 2.95386 33.0118 2.95386 31.9552V3.75155Z" fill="#F4EBEB"/>
<path d="M13.9539 0V31.7287L22.9539 34V2.40369L13.9539 0Z" fill="#F0D7CC"/>
<path d="M6 8.80842C6 8.33688 6.3294 7.92941 6.79047 7.83061L11.7905 6.75918C12.413 6.62579 13 7.10034 13 7.73699V9.69158C13 10.1631 12.6706 10.5706 12.2095 10.6694L7.20953 11.7408C6.58702 11.8742 6 11.3997 6 10.763V8.80842Z" fill="#52522E"/>
<path d="M24 25.5C24 24.9477 24.4477 24.5 25 24.5H30C30.5523 24.5 31 24.9477 31 25.5V27.5C31 28.0523 30.5523 28.5 30 28.5H25C24.4477 28.5 24 28.0523 24 27.5V25.5Z" fill="#F13F3F"/>
<path d="M14 11.854C14 11.1812 14.651 10.7003 15.2941 10.8982L19.7941 12.2828C20.2137 12.4119 20.5 12.7996 20.5 13.2386V15.146C20.5 15.8188 19.849 16.2997 19.2059 16.1018L14.7059 14.7172C14.2863 14.5881 14 14.2004 14 13.7614V11.854Z" fill="#474726"/>
<path d="M16 17.854C16 17.1812 16.651 16.7003 17.2941 16.8982L21.7941 18.2828C22.2137 18.4119 22.5 18.7996 22.5 19.2386V21.146C22.5 21.8188 21.849 22.2997 21.2059 22.1018L16.7059 20.7172C16.2863 20.5881 16 20.2004 16 19.7614V17.854Z" fill="#474726"/>
<path d="M28.3252 4.50646C28.4473 4.49572 28.5654 4.49536 28.6843 4.52909C28.8939 4.58852 29.0603 4.7317 29.1629 4.923C29.369 5.30698 29.2518 5.74771 29.1361 6.14014C29.3861 5.98146 29.6642 5.81636 29.9624 5.77621C30.2093 5.74295 30.4692 5.79245 30.6679 5.94904C30.8317 6.07804 30.9321 6.26557 30.9554 6.47243C30.957 6.48611 30.9583 6.49983 30.9593 6.51359C30.9603 6.52733 30.9609 6.54109 30.9612 6.55487C30.9615 6.56867 30.9614 6.58246 30.961 6.59622C30.9606 6.61 30.9599 6.62377 30.9588 6.63753C30.9577 6.65127 30.9563 6.66497 30.9545 6.67863C30.9527 6.69232 30.9506 6.70594 30.9481 6.7195C30.9457 6.73306 30.9429 6.74656 30.9398 6.75998C30.9367 6.7734 30.9332 6.78674 30.9295 6.79998C30.9257 6.81323 30.9216 6.82638 30.9171 6.83942C30.9127 6.85247 30.9079 6.8654 30.9028 6.87821C30.8977 6.891 30.8923 6.90366 30.8866 6.91619C30.8809 6.92874 30.8749 6.94112 30.8686 6.95334C30.8622 6.96557 30.8556 6.97764 30.8487 6.98954C30.8417 7.00143 30.8345 7.01314 30.827 7.02466C30.8195 7.0362 30.8117 7.04754 30.8036 7.05869C30.7955 7.06981 30.7872 7.08074 30.7786 7.09146C30.4904 7.44365 29.9814 7.43859 29.5672 7.48214C29.7252 7.6876 29.9234 7.86085 30.0709 8.07527C30.2195 8.29123 30.3046 8.52718 30.2498 8.79347C30.2118 8.97835 30.1006 9.1547 29.9419 9.25781C29.766 9.37214 29.5284 9.39323 29.3262 9.34814C28.9415 9.26236 28.744 8.94307 28.5467 8.63194L28.4691 8.51635C28.365 8.68619 28.2642 8.8614 28.134 9.01267C27.9671 9.20654 27.7659 9.36037 27.5017 9.37574C27.488 9.37658 27.4743 9.37707 27.4607 9.37723C27.447 9.37737 27.4333 9.37717 27.4196 9.37664C27.4059 9.3761 27.3923 9.37522 27.3787 9.37399C27.365 9.37276 27.3514 9.37118 27.3379 9.36926C27.3243 9.36734 27.3108 9.36508 27.2974 9.36248C27.2839 9.35988 27.2706 9.35695 27.2573 9.35367C27.244 9.3504 27.2308 9.3468 27.2176 9.34288C27.2045 9.33893 27.1915 9.33466 27.1786 9.33006C27.1657 9.32548 27.153 9.32056 27.1403 9.31531C27.1276 9.31007 27.1151 9.30452 27.1027 9.29865C27.0903 9.29278 27.0781 9.28659 27.066 9.28009C27.054 9.27361 27.0421 9.26683 27.0303 9.25975C27.0186 9.25265 27.0071 9.24526 26.9957 9.23759C26.9843 9.22991 26.9732 9.22196 26.9622 9.21373C26.9512 9.20551 26.9405 9.197 26.9299 9.18822C26.9194 9.17943 26.9091 9.17039 26.899 9.16109C26.7432 9.01666 26.6527 8.8294 26.6463 8.61534C26.6325 8.15911 27.0557 7.80839 27.3392 7.50212C27.0582 7.42473 26.7743 7.45299 26.5021 7.32209C26.288 7.21918 26.1212 7.04147 26.0447 6.81426C25.978 6.61614 25.983 6.39863 26.0794 6.21114C26.1789 6.01757 26.3604 5.86154 26.569 5.80051C27.0087 5.6719 27.4181 5.94402 27.7891 6.14329C27.7544 6.02535 27.7234 5.90644 27.696 5.78656C27.6232 5.46846 27.6101 5.15434 27.7918 4.86884C27.9192 4.66873 28.0978 4.55776 28.3252 4.50646Z" fill="#F13F3F"/>
</svg>
