<svg width="30" height="36" viewBox="0 0 30 36" fill="none" xmlns="http://www.w3.org/2000/svg">
<path fill-rule="evenodd" clip-rule="evenodd" d="M11.9618 1.46149C10.3059 3.11748 10.1049 4.78498 11.2863 7.06996C11.7188 7.90596 11.9393 8.93796 11.7763 9.36295C11.4783 10.1399 9.73687 10.0989 3.93048 9.17845C2.497 8.95096 1.88651 9.11395 1.05553 9.94495C0.140545 10.8599 0.000547629 11.5894 0.000547629 15.4389C0.000547629 20.8379 0.541538 21.6424 3.29149 20.3309C5.82894 19.1209 7.36691 19.2894 9.03888 20.9614C11.0038 22.9264 11.0038 25.0734 9.03888 27.0384C7.36691 28.7104 5.82894 28.8789 3.29149 27.6689C0.778034 26.4699 0.000547629 27.2714 0.000547629 31.0608C0.000547629 36.1073 -0.326446 35.9998 15.0003 35.9998C27.3335 35.9998 28.0515 35.9483 29 34.9998C29.942 34.0578 30 33.3333 30 22.4999C30 11.4664 29.957 10.9569 28.945 9.94495C28.114 9.11395 27.5035 8.95096 26.0701 9.17845C20.2637 10.0989 18.5222 10.1399 18.2242 9.36295C18.0612 8.93796 18.2817 7.90596 18.7142 7.06996C19.8957 4.78498 19.6947 3.11748 18.0387 1.46149C17.0412 0.463998 16.0763 0 15.0003 0C13.9243 0 12.9593 0.463998 11.9618 1.46149Z" fill="#788A25"/>
</svg>
